Exact Audio Copy V0.99 prebeta 4 from 23. January 2008

EAC 抓取日志文件从6. 十一月 2012, 16:32

刘淑芳 / 名人百集

使用驱动器  ：TEAC    CD-W540E   Adapter: 3  ID: 0

读取模式     : 保护
使用精确流   : 是
废除音频缓冲 : 是
使用 C2 指针 : 是

读取偏移校正                   : 686
读取 Lead-In 和 Lead-Out       : 否
用静音填充抓取中丢失偏移的采样 : 是
去除首尾静音块                 : 否
在 CRC 计算中使用了空样本      : 是
已用接口                       : Win NT 及 2000 本地 Win32 接口

所用输出格式 : 内部 WAV 函数
样本格式     : 44.100 Hz;16 Bit;立体声


被抓轨 CD 的 TOC

     音轨 |   开始   |   长度   | 起始扇区 | 结尾扇区 
    --------------------------------------------------
       1  |  0:00.00 |  4:28.47 |       0  |   20146  
       2  |  4:28.47 |  3:15.15 |   20147  |   34786  
       3  |  7:43.62 |  2:10.73 |   34787  |   44609  
       4  |  9:54.60 |  2:38.65 |   44610  |   56524  
       5  | 12:33.50 |  3:51.65 |   56525  |   73914  
       6  | 16:25.40 |  2:18.30 |   73915  |   84294  
       7  | 18:43.70 |  2:29.45 |   84295  |   95514  
       8  | 21:13.40 |  3:26.30 |   95515  |  110994  
       9  | 24:39.70 |  2:19.57 |  110995  |  121476  
      10  | 26:59.52 |  1:49.15 |  121477  |  129666  
      11  | 28:48.67 |  2:34.70 |  129667  |  141286  
      12  | 31:23.62 |  2:19.13 |  141287  |  151724  
      13  | 33:43.00 |  1:53.05 |  151725  |  160204  
      14  | 35:36.05 |  2:18.22 |  160205  |  170576  
      15  | 37:54.27 |  3:45.65 |  170577  |  187516  
      16  | 41:40.17 |  3:17.53 |  187517  |  202344  
      17  | 44:57.70 |  4:16.17 |  202345  |  221561  
      18  | 49:14.12 |  3:02.70 |  221562  |  235281  
      19  | 52:17.07 |  2:11.23 |  235282  |  245129  


范围状态及错误

已选择范围

     文件名 E:\行板如歌原抓\名人百集 - 刘淑芳.wav

     峰值电平 89.5 %
     范围质量 100.0 %
     复制 CRC BF89253E
     复制成功

没有错误发生

 
AccurateRip 概要
 
音轨  1  数据库中未见
音轨  2  数据库中未见
音轨  3  数据库中未见
音轨  4  数据库中未见
音轨  5  数据库中未见
音轨  6  数据库中未见
音轨  7  数据库中未见
音轨  8  数据库中未见
音轨  9  数据库中未见
音轨 10  数据库中未见
音轨 11  数据库中未见
音轨 12  数据库中未见
音轨 13  数据库中未见
音轨 14  数据库中未见
音轨 15  数据库中未见
音轨 16  数据库中未见
音轨 17  数据库中未见
音轨 18  数据库中未见
音轨 19  数据库中未见
 
没有任何音轨出现在 AccurateRip 数据库中

状态报告结尾
